<svg width="32" height="32" viewBox="0 0 32 32" fill="none" xmlns="http://www.w3.org/2000/svg">
  <rect width="32" height="32" rx="8" fill="#a1571a"/>
  <g stroke="#fbf4e9" stroke-width="1.7" stroke-linecap="round" stroke-linejoin="round" fill="none">
    <path d="M16 25V12"/>
    <path d="M16 12c0-2.6 1.3-4.5 3.4-5.8C18.2 8 17.1 9.6 16 12Z" fill="#fbf4e9"/>
    <path d="M16 12c0-2.6-1.3-4.5-3.4-5.8C13.8 8 14.9 9.6 16 12Z" fill="#fbf4e9"/>
    <path d="M16 17.8c2.1-.9 3.4-2.7 3.8-5.2-2.1.8-3.4 2.7-3.8 5.2Z" fill="#fbf4e9"/>
    <path d="M16 17.8c-2.1-.9-3.4-2.7-3.8-5.2 2.1.8 3.4 2.7 3.8 5.2Z" fill="#fbf4e9"/>
    <path d="M16 23.5c2.1-.9 3.4-2.7 3.8-5.2-2.1.8-3.4 2.7-3.8 5.2Z" fill="#fbf4e9"/>
    <path d="M16 23.5c-2.1-.9-3.4-2.7-3.8-5.2 2.1.8 3.4 2.7 3.8 5.2Z" fill="#fbf4e9"/>
  </g>
</svg>
